<svg width="20" height="20" viewBox="0 0 20 20" fill="none" xmlns="http://www.w3.org/2000/svg">
<g clip-path="url(#clip0)">
<path d="M1.12421 11.5684L1.09299 11.5616H14.4761L10.2689 15.778C10.0629 15.9839 9.94991 16.2627 9.94991 16.5554C9.94991 16.8481 10.0629 17.125 10.2689 17.3313L10.9236 17.9863C11.1294 18.1921 11.4037 18.306 11.6962 18.306C11.9889 18.306 12.2634 18.193 12.4693 17.9871L19.6811 10.7759C19.8878 10.5692 20.0008 10.2939 20 10.0011C20.0008 9.70662 19.8878 9.43117 19.6811 9.22483L12.4693 2.01296C12.2634 1.80727 11.9891 1.6941 11.6962 1.6941C11.4037 1.6941 11.1294 1.80743 10.9236 2.01296L10.2689 2.66792C10.0629 2.87345 9.94991 3.14792 9.94991 3.4406C9.94991 3.73312 10.0629 3.99312 10.2689 4.19881L14.5236 8.43881H1.10925C0.506485 8.43881 -1.90735e-05 8.95833 -1.90735e-05 9.56077V10.4871C-1.90735e-05 11.0895 0.521444 11.5684 1.12421 11.5684Z" fill="#776FC3"/>
</g>
<defs>
<clipPath id="clip0">
<rect x="20" y="20" width="20" height="20" transform="rotate(-180 20 20)" fill="white"/>
</clipPath>
</defs>
</svg>
