<svg width="45" height="41" viewBox="0 0 45 41" fill="none" xmlns="http://www.w3.org/2000/svg">
<path fill-rule="evenodd" clip-rule="evenodd" d="M40.1666 9.45833H31.3333V5.04167L26.9166 0.625H18.0833L13.6666 5.04167V9.45833H4.83329C2.40413 9.45833 0.416626 11.4458 0.416626 13.875V24.9167C0.416626 26.5729 1.29996 27.9642 2.62496 28.7371V35.9583C2.62496 38.4096 4.59038 40.375 7.04163 40.375H37.9583C40.4095 40.375 42.375 38.4096 42.375 35.9583V28.715C43.6779 27.9421 44.5833 26.5287 44.5833 24.9167V13.875C44.5833 11.4458 42.5958 9.45833 40.1666 9.45833ZM18.0833 5.04167H26.9166V9.45833H18.0833V5.04167ZM40.1666 13.875H4.83329V24.9167H15.875V18.2917H29.125V24.9167H40.1666V13.875ZM24.7083 27.125H20.2916V22.7083H24.7083V27.125ZM7.04163 35.9583H37.9583V29.3333H29.125V31.5417H15.875V29.3333H7.04163V35.9583Z" fill="#574A97"/>
</svg>
