<?xml version="1.0" encoding="UTF-8" standalone="no"?>
<svg
   xmlns:dc="http://purl.org/dc/elements/1.1/"
   xmlns:cc="http://creativecommons.org/ns#"
   xmlns:rdf="http://www.w3.org/1999/02/22-rdf-syntax-ns#"
   xmlns:svg="http://www.w3.org/2000/svg"
   xmlns="http://www.w3.org/2000/svg"
   xmlns:sodipodi="http://sodipodi.sourceforge.net/DTD/sodipodi-0.dtd"
   xmlns:inkscape="http://www.inkscape.org/namespaces/inkscape"
   inkscape:version="1.0 (4035a4f, 2020-05-01)"
   sodipodi:docname="car.svg"
   id="svg42"
   version="1.1"
   fill="none"
   viewBox="0 0 49 49"
   height="49"
   width="49">
  <metadata
     id="metadata48">
    <rdf:RDF>
      <cc:Work
         rdf:about="">
        <dc:format>image/svg+xml</dc:format>
        <dc:type
           rdf:resource="http://purl.org/dc/dcmitype/StillImage" />
        <dc:title></dc:title>
      </cc:Work>
    </rdf:RDF>
  </metadata>
  <defs
     id="defs46" />
  <sodipodi:namedview
     inkscape:current-layer="svg42"
     inkscape:window-maximized="0"
     inkscape:window-y="35"
     inkscape:window-x="99"
     inkscape:cy="19.674853"
     inkscape:cx="20.563505"
     inkscape:zoom="6.7046551"
     showgrid="false"
     id="namedview44"
     inkscape:window-height="736"
     inkscape:window-width="1290"
     inkscape:pageshadow="2"
     inkscape:pageopacity="0"
     guidetolerance="10"
     gridtolerance="10"
     objecttolerance="10"
     borderopacity="1"
     bordercolor="#666666"
     pagecolor="#ffffff" />
  <path
     id="path40"
     fill="#574a97"
     d="M 41.8864,15.68118 H 35.2727 V 6.863 H 4.40909 C 1.98409,6.863 0,8.84709 0,11.27209 V 35.5221 h 4.40909 c 0,3.6595 2.95409,6.6136 6.61361,6.6136 3.6596,0 6.6137,-2.9541 6.6137,-6.6136 h 13.2272 c 0,3.6595 2.9541,6.6136 6.6137,6.6136 3.6595,0 6.6136,-2.9541 6.6136,-6.6136 H 48.5 V 24.4994 Z M 40.7841,18.988 45.105,24.4994 H 35.2727 V 18.988 Z M 8.8182,35.5221 c 0,1.2125 0.99205,2.2045 2.2045,2.2045 1.2125,0 2.2046,-0.992 2.2046,-2.2045 0,-1.2125 -0.9921,-2.2046 -2.2046,-2.2046 -1.21245,0 -2.2045,0.9921 -2.2045,2.2046 z m 7.0986,-4.4091 c -1.2125,-1.3447 -2.9321,-2.2045 -4.8941,-2.2045 -1.96204,0 -3.68159,0.8598 -4.89409,2.2045 H 4.40907 V 11.27212 H 30.8636 V 31.113 Z m 19.3559,4.4091 c 0,1.2125 0.9921,2.2045 2.2046,2.2045 1.2125,0 2.2045,-0.992 2.2045,-2.2045 0,-1.2125 -0.992,-2.2046 -2.2045,-2.2046 -1.2125,0 -2.2046,0.9921 -2.2046,2.2046 z"
     clip-rule="evenodd"
     fill-rule="evenodd" />
</svg>
