<svg width="49" height="36" viewBox="0 0 49 36" fill="none" xmlns="http://www.w3.org/2000/svg">
<path fill-rule="evenodd" clip-rule="evenodd" d="M41.8864 8.81818H35.2727V0H4.40909C1.98409 0 0 1.98409 0 4.40909V28.6591H4.40909C4.40909 32.3186 7.36318 35.2727 11.0227 35.2727C14.6823 35.2727 17.6364 32.3186 17.6364 28.6591H30.8636C30.8636 32.3186 33.8177 35.2727 37.4773 35.2727C41.1368 35.2727 44.0909 32.3186 44.0909 28.6591H48.5V17.6364L41.8864 8.81818ZM40.7841 12.125L45.105 17.6364H35.2727V12.125H40.7841ZM8.8182 28.6591C8.8182 29.8716 9.81025 30.8636 11.0227 30.8636C12.2352 30.8636 13.2273 29.8716 13.2273 28.6591C13.2273 27.4466 12.2352 26.4545 11.0227 26.4545C9.81025 26.4545 8.8182 27.4466 8.8182 28.6591ZM15.9168 24.25C14.7043 22.9053 12.9847 22.0455 11.0227 22.0455C9.06066 22.0455 7.34111 22.9053 6.12861 24.25H4.40907V4.40912H30.8636V24.25H15.9168ZM35.2727 28.6591C35.2727 29.8716 36.2648 30.8636 37.4773 30.8636C38.6898 30.8636 39.6818 29.8716 39.6818 28.6591C39.6818 27.4466 38.6898 26.4545 37.4773 26.4545C36.2648 26.4545 35.2727 27.4466 35.2727 28.6591Z" fill="#574A97"/>
</svg>
