<svg width="50" height="50" viewBox="0 0 50 50" fill="none" xmlns="http://www.w3.org/2000/svg">
<path fill-rule="evenodd" clip-rule="evenodd" d="M0 25C0 38.775 11.225 50 25 50C28.45 50 31.25 47.2 31.25 43.75C31.25 42.225 30.675 40.75 29.65 39.575C29.45 39.325 29.325 39.05 29.325 38.75C29.325 38.05 29.875 37.5 30.575 37.5H35C43.275 37.5 50 30.775 50 22.5C50 10.1 38.775 0 25 0C11.225 0 0 11.225 0 25ZM5 25C5 13.975 13.975 5 25 5C36.025 5 45 12.85 45 22.5C45 28.025 40.525 32.5 35 32.5H30.575C27.125 32.5 24.325 35.3 24.325 38.75C24.325 40.25 24.875 41.725 25.9 42.875C26.05 43.05 26.25 43.35 26.25 43.75C26.25 44.45 25.7 45 25 45C13.975 45 5 36.025 5 25ZM11.25 20C9.17893 20 7.5 21.6789 7.5 23.75C7.5 25.8211 9.17893 27.5 11.25 27.5C13.3211 27.5 15 25.8211 15 23.75C15 21.6789 13.3211 20 11.25 20ZM15 13.75C15 11.6789 16.6789 10 18.75 10C20.8211 10 22.5 11.6789 22.5 13.75C22.5 15.8211 20.8211 17.5 18.75 17.5C16.6789 17.5 15 15.8211 15 13.75ZM31.25 10C29.1789 10 27.5 11.6789 27.5 13.75C27.5 15.8211 29.1789 17.5 31.25 17.5C33.3211 17.5 35 15.8211 35 13.75C35 11.6789 33.3211 10 31.25 10ZM35 23.75C35 21.6789 36.6789 20 38.75 20C40.8211 20 42.5 21.6789 42.5 23.75C42.5 25.8211 40.8211 27.5 38.75 27.5C36.6789 27.5 35 25.8211 35 23.75Z" fill="#574A97"/>
</svg>
