<svg width="40" height="45" viewBox="0 0 40 45" fill="none" xmlns="http://www.w3.org/2000/svg">
<path fill-rule="evenodd" clip-rule="evenodd" d="M33 4.83332H35.1667C37.55 4.83332 39.5 6.82082 39.5 9.24999V40.1667C39.5 42.5958 37.55 44.5833 35.1667 44.5833H4.83333C2.45 44.5833 0.5 42.5958 0.5 40.1667V9.24999C0.5 6.82082 2.45 4.83332 4.83333 4.83332H7V0.416656H11.3333V4.83332H28.6667V0.416656H33V4.83332ZM4.83333 40.1667H35.1667V18.0833H4.83333V40.1667ZM4.83333 13.6667V9.24999H35.1667V13.6667H4.83333ZM29.7284 23.6704L16.88 36.7658L10.0117 29.7654L12.3083 27.4246L16.88 32.0842L27.4317 21.3296L29.7284 23.6704Z" fill="#574A97"/>
</svg>
