<svg width="45" height="37" viewBox="0 0 45 37" fill="none" xmlns="http://www.w3.org/2000/svg">
<path fill-rule="evenodd" clip-rule="evenodd" d="M44.5833 14.0833V5.25001C44.5833 2.82084 42.5958 0.833344 40.1666 0.833344H4.83329C2.40413 0.833344 0.438709 2.82084 0.438709 5.25001V14.0833C2.86788 14.0833 4.83329 16.0708 4.83329 18.5C4.83329 20.9292 2.86788 22.9167 0.416626 22.9167V31.75C0.416626 34.1792 2.40413 36.1667 4.83329 36.1667H40.1666C42.5958 36.1667 44.5833 34.1792 44.5833 31.75V22.9167C42.1541 22.9167 40.1666 20.9292 40.1666 18.5C40.1666 16.0708 42.1541 14.0833 44.5833 14.0833ZM40.1666 10.8592C37.5387 12.3829 35.75 15.2538 35.75 18.5C35.75 21.7463 37.5387 24.6171 40.1666 26.1408V31.75H4.83329V26.1408C7.46121 24.6171 9.24996 21.7463 9.24996 18.5C9.24996 15.2317 7.48329 12.3829 4.85538 10.8592L4.83329 5.25001H40.1666V10.8592ZM22.5 23.1817L16.0296 27.3333L17.9729 19.8913L12.0325 15.0329L19.6954 14.5692L22.5 7.45834L25.2825 14.5913L32.9454 15.055L27.005 19.9133L28.9704 27.3333L22.5 23.1817Z" fill="#574A97"/>
</svg>
