<svg width="16" height="17" viewBox="0 0 16 17" fill="none" xmlns="http://www.w3.org/2000/svg">
<circle cx="8" cy="8.5" r="8" fill="#776FC3"/>
<path d="M6.56555 5.69C6.99221 5.43 7.48888 5.3 8.05555 5.3C8.46888 5.3 8.83555 5.37 9.15555 5.51C9.47555 5.65 9.72221 5.84333 9.89555 6.09C10.0755 6.33667 10.1655 6.62333 10.1655 6.95C10.1655 7.30333 10.0822 7.60667 9.91555 7.86C9.75555 8.11333 9.51221 8.40667 9.18555 8.74C8.91221 9.02 8.70555 9.26 8.56555 9.46C8.42555 9.65333 8.33888 9.87333 8.30555 10.12L8.26555 10.4H7.52555V9.99C7.52555 9.61667 7.59221 9.30333 7.72555 9.05C7.85888 8.79 8.05221 8.51 8.30555 8.21C8.49888 7.98333 8.64221 7.78667 8.73555 7.62C8.83555 7.45333 8.88555 7.26667 8.88555 7.06C8.88555 6.82667 8.80221 6.64667 8.63555 6.52C8.47555 6.38667 8.25221 6.32 7.96555 6.32C7.49888 6.32 7.03221 6.46333 6.56555 6.75V5.69ZM7.20555 11.1H8.61555V12.5H7.20555V11.1Z" fill="white"/>
</svg>
