<svg width="45" height="45" viewBox="0 0 45 45" fill="none" xmlns="http://www.w3.org/2000/svg">
<path fill-rule="evenodd" clip-rule="evenodd" d="M31.3333 0.416656H2.62496C1.41038 0.416656 0.416626 1.41041 0.416626 2.62499V33.5417L9.24996 24.7083H31.3333C32.5479 24.7083 33.5416 23.7146 33.5416 22.5V2.62499C33.5416 1.41041 32.5479 0.416656 31.3333 0.416656ZM29.125 4.83332V20.2917H7.41704L6.11413 21.5946L4.83329 22.8754V4.83332H29.125ZM37.9583 9.24999H42.375C43.5895 9.24999 44.5833 10.2437 44.5833 11.4583V44.5833L35.75 35.75H11.4583C10.2437 35.75 9.24996 34.7562 9.24996 33.5417V29.125H37.9583V9.24999Z" fill="#574A97"/>
</svg>
