<svg width="44" height="52" viewBox="0 0 44 52" fill="none" xmlns="http://www.w3.org/2000/svg">
<path fill-rule="evenodd" clip-rule="evenodd" d="M14.6667 0H29.3333V4.88889H14.6667V0ZM24.4445 31.7778H19.5556V17.1111H24.4445V31.7778ZM39.1844 15.5955L42.6556 12.1244C41.6044 10.8778 40.4556 9.70443 39.2089 8.67777L35.7378 12.1489C31.9489 9.11777 27.1822 7.30888 22 7.30888C9.85111 7.30888 0 17.16 0 29.3089C0 41.4578 9.82667 51.3089 22 51.3089C34.1733 51.3089 44 41.4578 44 29.3089C44 24.1511 42.1911 19.3844 39.1844 15.5955ZM4.88888 29.3334C4.88888 38.7934 12.54 46.4445 22 46.4445C31.46 46.4445 39.1111 38.7934 39.1111 29.3334C39.1111 19.8734 31.46 12.2222 22 12.2222C12.54 12.2222 4.88888 19.8734 4.88888 29.3334Z" fill="#574A97"/>
</svg>
