<svg width="28" height="28" viewBox="0 0 28 28" fill="none" xmlns="http://www.w3.org/2000/svg">
<path d="M14.0115 0C6.27346 0 0 6.26316 0 13.9885C0 19.9178 3.69027 24.9836 8.90278 27.0214C8.77593 25.9161 8.67214 24.2122 8.94891 23.0033C9.20262 21.9095 10.5865 16.0493 10.5865 16.0493C10.5865 16.0493 10.1713 15.2089 10.1713 13.977C10.1713 12.0312 11.3015 10.5806 12.7084 10.5806C13.9077 10.5806 14.4843 11.4786 14.4843 12.5493C14.4843 13.7467 13.7232 15.5428 13.3196 17.2122C12.9851 18.6053 14.023 19.7451 15.3954 19.7451C17.8863 19.7451 19.8006 17.1201 19.8006 13.3437C19.8006 9.99342 17.3904 7.65625 13.9423 7.65625C9.9522 7.65625 7.61119 10.6382 7.61119 13.7237C7.61119 14.9211 8.07247 16.2105 8.64907 16.9128C8.7644 17.051 8.77593 17.1776 8.74133 17.3158C8.63754 17.7533 8.39537 18.7089 8.34924 18.9046C8.29158 19.1579 8.14166 19.2155 7.87642 19.0888C6.12354 18.2714 5.028 15.727 5.028 13.6661C5.028 9.25658 8.23392 5.20395 14.2883 5.20395C19.1433 5.20395 22.9258 8.65789 22.9258 13.2862C22.9258 18.1102 19.8813 21.9901 15.6606 21.9901C14.2421 21.9901 12.9044 21.2533 12.4547 20.3783C12.4547 20.3783 11.7512 23.0493 11.5782 23.7056C11.2669 24.926 10.4135 26.4457 9.83688 27.3783C11.1515 27.7812 12.5354 28 13.9884 28C21.7265 28 27.9999 21.7368 27.9999 14.0115C28.023 6.26316 21.7495 0 14.0115 0Z" fill="#776FC3"/>
</svg>
