<svg width="28" height="28" viewBox="0 0 28 28" fill="none" xmlns="http://www.w3.org/2000/svg">
<path fill-rule="evenodd" clip-rule="evenodd" d="M14 0C6.26801 0 0 6.26801 0 14C0 21.732 6.26801 28 14 28C21.732 28 28 21.732 28 14C28 6.26801 21.732 0 14 0ZM13.6101 11.8638L13.5807 11.3793C13.4926 10.1238 14.2662 8.97693 15.4903 8.53205C15.9407 8.37387 16.7046 8.35409 17.204 8.4925C17.3999 8.55182 17.772 8.74955 18.0364 8.9275L18.5162 9.25375L19.045 9.08568C19.3388 8.99671 19.7305 8.84841 19.9068 8.74955C20.0733 8.66057 20.2202 8.61114 20.2202 8.6408C20.2202 8.80887 19.8578 9.38227 19.5543 9.69864C19.143 10.1435 19.2605 10.1831 20.0929 9.88648C20.5923 9.71841 20.6021 9.71841 20.5041 9.90625C20.4454 10.0051 20.1418 10.3511 19.8187 10.6675C19.2703 11.2113 19.2409 11.2706 19.2409 11.7253C19.2409 12.4273 18.9079 13.8905 18.575 14.6912C17.958 16.194 16.636 17.7461 15.314 18.5272C13.4534 19.6245 10.9758 19.9014 8.88999 19.2587C8.19471 19.0412 7 18.4876 7 18.3887C7 18.3591 7.36233 18.3195 7.803 18.3097C8.72352 18.2899 9.64403 18.0328 10.4274 17.5781L10.9563 17.2617L10.3491 17.0541C9.48735 16.7575 8.71372 16.0753 8.51787 15.4327C8.45911 15.2251 8.4787 15.2152 9.02709 15.2152L9.59507 15.2053L9.11523 14.978C8.54725 14.6912 8.02823 14.2068 7.77362 13.7125C7.58756 13.3566 7.35254 12.4569 7.42109 12.3877C7.44067 12.3581 7.64632 12.4174 7.88134 12.4965C8.55704 12.7436 8.64517 12.6843 8.25347 12.2691C7.51901 11.5177 7.29378 10.4006 7.64632 9.34273L7.81279 8.86818L8.45911 9.5108C9.78113 10.8059 11.3382 11.577 13.1204 11.8044L13.6101 11.8638Z" fill="#776FC3"/>
</svg>
