<svg width="50" height="51" viewBox="0 0 50 51" fill="none" xmlns="http://www.w3.org/2000/svg">
<path fill-rule="evenodd" clip-rule="evenodd" d="M0 25.9053C0 39.6803 11.225 50.9053 25 50.9053C28.45 50.9053 31.25 48.1053 31.25 44.6553C31.25 43.1303 30.675 41.6553 29.65 40.4803C29.45 40.2303 29.325 39.9553 29.325 39.6553C29.325 38.9553 29.875 38.4053 30.575 38.4053H35C43.275 38.4053 50 31.6803 50 23.4053C50 11.0053 38.775 0.905273 25 0.905273C11.225 0.905273 0 12.1303 0 25.9053ZM5 25.9053C5 14.8803 13.975 5.90527 25 5.90527C36.025 5.90527 45 13.7553 45 23.4053C45 28.9303 40.525 33.4053 35 33.4053H30.575C27.125 33.4053 24.325 36.2053 24.325 39.6553C24.325 41.1553 24.875 42.6303 25.9 43.7803C26.05 43.9553 26.25 44.2553 26.25 44.6553C26.25 45.3553 25.7 45.9053 25 45.9053C13.975 45.9053 5 36.9303 5 25.9053ZM11.25 20.9053C9.17893 20.9053 7.5 22.5842 7.5 24.6553C7.5 26.7263 9.17893 28.4053 11.25 28.4053C13.3211 28.4053 15 26.7263 15 24.6553C15 22.5842 13.3211 20.9053 11.25 20.9053ZM15 14.6553C15 12.5842 16.6789 10.9053 18.75 10.9053C20.8211 10.9053 22.5 12.5842 22.5 14.6553C22.5 16.7263 20.8211 18.4053 18.75 18.4053C16.6789 18.4053 15 16.7263 15 14.6553ZM31.25 10.9053C29.1789 10.9053 27.5 12.5842 27.5 14.6553C27.5 16.7263 29.1789 18.4053 31.25 18.4053C33.3211 18.4053 35 16.7263 35 14.6553C35 12.5842 33.3211 10.9053 31.25 10.9053ZM35 24.6553C35 22.5842 36.6789 20.9053 38.75 20.9053C40.8211 20.9053 42.5 22.5842 42.5 24.6553C42.5 26.7263 40.8211 28.4053 38.75 28.4053C36.6789 28.4053 35 26.7263 35 24.6553Z" fill="#284458"/>
</svg>
