<svg width="41" height="40" viewBox="0 0 41 40" fill="none" xmlns="http://www.w3.org/2000/svg">
<path fill-rule="evenodd" clip-rule="evenodd" d="M20.4501 0C14.821 0 10.2618 4.475 10.2618 10C10.2618 15.525 14.821 20 20.4501 20C26.0791 20 30.6384 15.525 30.6384 10C30.6384 4.475 26.0791 0 20.4501 0ZM25.5443 10C25.5443 7.25 23.2519 5 20.4501 5C17.6483 5 15.3559 7.25 15.3559 10C15.3559 12.75 17.6483 15 20.4501 15C23.2519 15 25.5443 12.75 25.5443 10ZM35.7326 35C35.2232 33.225 27.3272 30 20.4501 30C13.5984 30 5.75344 33.2 5.16761 35H35.7326ZM0.0734863 35C0.0734863 28.35 13.6494 25 20.4501 25C27.2508 25 40.8268 28.35 40.8268 35V40H0.0734863V35Z" fill="#284458" fill-opacity="0.14"/>
</svg>
