<svg width="213" height="529" viewBox="0 0 213 529" fill="none" xmlns="http://www.w3.org/2000/svg">
<mask id="mask0" mask-type="alpha" maskUnits="userSpaceOnUse" x="0" y="0" width="486" height="481">
<rect width="486" height="481" transform="matrix(-1 0 0 1 486 0)" fill="white"/>
</mask>
<g mask="url(#mask0)">
<rect width="541.987" height="608.562" transform="matrix(-1 0 0 1 486 -8.83133)" fill="#EEF4F7"/>
<path d="M296 64L-138 529" stroke="#D7E4ED"/>
<path d="M279.047 45.8359L-154.953 510.836" stroke="#D7E4ED"/>
<path d="M262.094 27.6719L-171.906 492.672" stroke="#D7E4ED"/>
<path d="M245.141 9.50781L-188.859 474.508" stroke="#D7E4ED"/>
<path d="M228.188 -8.65625L-205.812 456.344" stroke="#D7E4ED"/>
<path d="M211.234 -26.8203L-222.766 438.18" stroke="#D7E4ED"/>
<path d="M194.281 -44.9844L-239.719 420.016" stroke="#D7E4ED"/>
<path d="M177.328 -63.1484L-256.672 401.852" stroke="#D7E4ED"/>
<path d="M160.375 -81.3125L-273.625 383.688" stroke="#D7E4ED"/>
<path d="M143.422 -99.4766L-290.578 365.523" stroke="#D7E4ED"/>
<path d="M126.469 -117.641L-307.531 347.359" stroke="#D7E4ED"/>
<path d="M109.516 -135.805L-324.484 329.195" stroke="#D7E4ED"/>
<path d="M92.5625 -153.969L-341.438 311.031" stroke="#D7E4ED"/>
<path d="M312.953 82.1641L-121.047 547.164" stroke="#D7E4ED"/>
<path d="M329.906 100.328L-104.094 565.328" stroke="#D7E4ED"/>
<path d="M346.859 118.492L-87.1406 583.492" stroke="#D7E4ED"/>
<path d="M363.812 136.656L-70.1875 601.656" stroke="#D7E4ED"/>
<path d="M380.766 154.82L-53.2344 619.82" stroke="#D7E4ED"/>
<path d="M397.719 172.984L-36.2812 637.984" stroke="#D7E4ED"/>
<path d="M414.672 191.148L-19.3281 656.148" stroke="#D7E4ED"/>
<path d="M431.625 209.312L-2.375 674.312" stroke="#D7E4ED"/>
<path d="M448.578 227.477L14.5781 692.477" stroke="#D7E4ED"/>
<path d="M465.531 245.641L31.5312 710.641" stroke="#D7E4ED"/>
<path d="M482.484 263.805L48.4844 728.805" stroke="#D7E4ED"/>
<path d="M499.438 281.969L65.4375 746.969" stroke="#D7E4ED"/>
<path d="M516.391 300.133L82.3906 765.133" stroke="#D7E4ED"/>
<path d="M287.523 54.918L-146.477 519.918" stroke="#D7E4ED"/>
<path d="M270.57 36.7539L-163.43 501.754" stroke="#D7E4ED"/>
<path d="M253.617 18.5898L-180.383 483.59" stroke="#D7E4ED"/>
<path d="M236.664 0.425781L-197.336 465.426" stroke="#D7E4ED"/>
<path d="M219.711 -17.7383L-214.289 447.262" stroke="#D7E4ED"/>
<path d="M202.758 -35.9023L-231.242 429.098" stroke="#D7E4ED"/>
<path d="M185.805 -54.0664L-248.195 410.934" stroke="#D7E4ED"/>
<path d="M168.852 -72.2305L-265.148 392.77" stroke="#D7E4ED"/>
<path d="M151.898 -90.3945L-282.102 374.605" stroke="#D7E4ED"/>
<path d="M134.945 -108.559L-299.055 356.441" stroke="#D7E4ED"/>
<path d="M117.992 -126.723L-316.008 338.277" stroke="#D7E4ED"/>
<path d="M101.039 -144.887L-332.961 320.113" stroke="#D7E4ED"/>
<path d="M84.0859 -163.051L-349.914 301.949" stroke="#D7E4ED"/>
<path d="M304.477 73.082L-129.523 538.082" stroke="#D7E4ED"/>
<path d="M321.43 91.2461L-112.57 556.246" stroke="#D7E4ED"/>
<path d="M338.383 109.41L-95.6172 574.41" stroke="#D7E4ED"/>
<path d="M355.336 127.574L-78.6641 592.574" stroke="#D7E4ED"/>
<path d="M372.289 145.738L-61.7109 610.738" stroke="#D7E4ED"/>
<path d="M389.242 163.902L-44.7578 628.902" stroke="#D7E4ED"/>
<path d="M406.195 182.066L-27.8047 647.066" stroke="#D7E4ED"/>
<path d="M423.148 200.23L-10.8516 665.23" stroke="#D7E4ED"/>
<path d="M440.102 218.395L6.10156 683.395" stroke="#D7E4ED"/>
<path d="M457.055 236.559L23.0547 701.559" stroke="#D7E4ED"/>
<path d="M474.008 254.723L40.0078 719.723" stroke="#D7E4ED"/>
<path d="M490.961 272.887L56.9609 737.887" stroke="#D7E4ED"/>
<path d="M507.914 291.051L73.9141 756.051" stroke="#D7E4ED"/>
</g>
</svg>
