<svg width="134" height="125" viewBox="0 0 134 125" fill="none" xmlns="http://www.w3.org/2000/svg">
<path d="M53.0769 85.305C47.5552 98.6739 64.5834 100.439 73.7877 99.6511C96.5169 97.7402 117.141 23.8011 100.342 8.45311C83.5434 -6.89487 47.4095 37.9437 52.6933 43.1084C57.9771 48.2731 59.9791 68.594 53.0769 85.305Z" fill="#E5F7FF"/>
<g filter="url(#filter0_d)">
<rect x="61.8203" y="0.860596" width="70" height="70" rx="18.2212" transform="rotate(45 61.8203 0.860596)" fill="#776FC3"/>
</g>
<path fill-rule="evenodd" clip-rule="evenodd" d="M73.6606 40.917H69.1565V34.9116H48.1377C46.4862 34.9116 45.135 36.2628 45.135 37.9143V54.4291H48.1377C48.1377 56.9214 50.1495 58.9332 52.6417 58.9332C55.134 58.9332 57.1458 56.9214 57.1458 54.4291H66.1539C66.1539 56.9214 68.1657 58.9332 70.6579 58.9332C73.1501 58.9332 75.1619 56.9214 75.1619 54.4291H78.1646V46.9224L73.6606 40.917ZM72.9102 43.1692L75.8528 46.9226H69.1568V43.1692H72.9102ZM51.1405 54.4292C51.1405 55.2549 51.8161 55.9305 52.6418 55.9305C53.4675 55.9305 54.1431 55.2549 54.1431 54.4292C54.1431 53.6034 53.4675 52.9278 52.6418 52.9278C51.8161 52.9278 51.1405 53.6034 51.1405 54.4292ZM55.9749 51.4265C55.1492 50.5106 53.9781 49.9251 52.6419 49.9251C51.3057 49.9251 50.1347 50.5106 49.3089 51.4265H48.1379V37.9143H66.154V51.4265H55.9749ZM69.1568 54.4292C69.1568 55.2549 69.8324 55.9305 70.6581 55.9305C71.4839 55.9305 72.1595 55.2549 72.1595 54.4292C72.1595 53.6034 71.4839 52.9278 70.6581 52.9278C69.8324 52.9278 69.1568 53.6034 69.1568 54.4292Z" fill="white"/>
<defs>
<filter id="filter0_d" x="0.175274" y="0.860596" width="123.29" height="123.29" filterUnits="userSpaceOnUse" color-interpolation-filters="sRGB">
<feFlood flood-opacity="0" result="BackgroundImageFix"/>
<feColorMatrix in="SourceAlpha" type="matrix" values="0 0 0 0 0 0 0 0 0 0 0 0 0 0 0 0 0 0 127 0"/>
<feOffset dy="12.1475"/>
<feGaussianBlur stdDeviation="6.07374"/>
<feColorMatrix type="matrix" values="0 0 0 0 0.466667 0 0 0 0 0.435294 0 0 0 0 0.764706 0 0 0 0.22 0"/>
<feBlend mode="normal" in2="BackgroundImageFix" result="effect1_dropShadow"/>
<feBlend mode="normal" in="SourceGraphic" in2="effect1_dropShadow" result="shape"/>
</filter>
</defs>
</svg>
