<svg width="134" height="140" viewBox="0 0 134 140" fill="none" xmlns="http://www.w3.org/2000/svg">
<path d="M120.883 28.5547C136.574 16.1773 114.012 7.32433 100.769 4.44502C68.0889 -2.70449 -4.94098 69.7816 9.14398 93.3969C23.2289 117.012 100.293 82.6592 96.0658 74.8625C91.8383 67.0658 101.268 44.0264 120.883 28.5547Z" fill="#E5F7FF"/>
<g filter="url(#filter0_d)">
<rect x="66.6589" y="11.6984" width="70" height="70" rx="21.6693" transform="rotate(45 66.6589 11.6984)" fill="#776FC3"/>
</g>
<path fill-rule="evenodd" clip-rule="evenodd" d="M48.7224 61.7091C48.7224 71.659 56.8304 79.7669 66.7802 79.7669C69.2722 79.7669 71.2946 77.7444 71.2946 75.2525C71.2946 74.1509 70.8793 73.0855 70.1389 72.2368C69.9945 72.0562 69.9042 71.8576 69.9042 71.6409C69.9042 71.1353 70.3015 70.738 70.8071 70.738H74.0033C79.9804 70.738 84.838 65.8805 84.838 59.9034C84.838 50.9467 76.73 43.6514 66.7802 43.6514C56.8304 43.6514 48.7224 51.7593 48.7224 61.7091ZM52.3339 61.7092C52.3339 53.7457 58.8167 47.263 66.7802 47.263C74.7436 47.263 81.2264 52.9331 81.2264 59.9034C81.2264 63.8942 77.994 67.1265 74.0033 67.1265H70.807C68.3151 67.1265 66.2926 69.149 66.2926 71.641C66.2926 72.7244 66.6899 73.7898 67.4302 74.6205C67.5386 74.7469 67.6831 74.9636 67.6831 75.2525C67.6831 75.7581 67.2858 76.1554 66.7802 76.1554C58.8167 76.1554 52.3339 69.6727 52.3339 61.7092ZM56.8484 58.0976C55.3524 58.0976 54.1397 59.3103 54.1397 60.8063C54.1397 62.3023 55.3524 63.515 56.8484 63.515C58.3443 63.515 59.5571 62.3023 59.5571 60.8063C59.5571 59.3103 58.3443 58.0976 56.8484 58.0976ZM59.5571 53.5832C59.5571 52.0872 60.7698 50.8745 62.2657 50.8745C63.7617 50.8745 64.9744 52.0872 64.9744 53.5832C64.9744 55.0791 63.7617 56.2919 62.2657 56.2919C60.7698 56.2919 59.5571 55.0791 59.5571 53.5832ZM71.2946 50.8745C69.7987 50.8745 68.5859 52.0872 68.5859 53.5832C68.5859 55.0791 69.7987 56.2919 71.2946 56.2919C72.7906 56.2919 74.0033 55.0791 74.0033 53.5832C74.0033 52.0872 72.7906 50.8745 71.2946 50.8745ZM74.0033 60.8063C74.0033 59.3103 75.216 58.0976 76.7119 58.0976C78.2079 58.0976 79.4206 59.3103 79.4206 60.8063C79.4206 62.3023 78.2079 63.515 76.7119 63.515C75.216 63.515 74.0033 62.3023 74.0033 60.8063Z" fill="white"/>
<defs>
<filter id="filter0_d" x="2.71516" y="11.6984" width="127.887" height="127.887" filterUnits="userSpaceOnUse" color-interpolation-filters="sRGB">
<feFlood flood-opacity="0" result="BackgroundImageFix"/>
<feColorMatrix in="SourceAlpha" type="matrix" values="0 0 0 0 0 0 0 0 0 0 0 0 0 0 0 0 0 0 127 0"/>
<feOffset dy="14.4462"/>
<feGaussianBlur stdDeviation="7.22311"/>
<feColorMatrix type="matrix" values="0 0 0 0 0.466667 0 0 0 0 0.435294 0 0 0 0 0.764706 0 0 0 0.22 0"/>
<feBlend mode="normal" in2="BackgroundImageFix" result="effect1_dropShadow"/>
<feBlend mode="normal" in="SourceGraphic" in2="effect1_dropShadow" result="shape"/>
</filter>
</defs>
</svg>
