<svg width="67" height="50" viewBox="0 0 67 50" fill="none" xmlns="http://www.w3.org/2000/svg">
<path fill-rule="evenodd" clip-rule="evenodd" d="M57.8636 12.5871H48.7273V0.405273H6.09091C2.74091 0.405273 0 3.14618 0 6.49618V39.9962H6.09091C6.09091 45.0516 10.1718 49.1325 15.2273 49.1325C20.2827 49.1325 24.3636 45.0516 24.3636 39.9962H42.6364C42.6364 45.0516 46.7173 49.1325 51.7727 49.1325C56.8282 49.1325 60.9091 45.0516 60.9091 39.9962H67V24.7689L57.8636 12.5871ZM56.3409 17.1553L62.31 24.7689H48.7273V17.1553H56.3409ZM12.1818 39.9962C12.1818 41.6712 13.5523 43.0416 15.2273 43.0416C16.9023 43.0416 18.2728 41.6712 18.2728 39.9962C18.2728 38.3212 16.9023 36.9507 15.2273 36.9507C13.5523 36.9507 12.1818 38.3212 12.1818 39.9962ZM21.9881 33.9053C20.3131 32.0475 17.9377 30.8598 15.2272 30.8598C12.5168 30.8598 10.1413 32.0475 8.46633 33.9053H6.09087V6.49617H42.6363V33.9053H21.9881ZM48.7273 39.9962C48.7273 41.6712 50.0977 43.0416 51.7727 43.0416C53.4477 43.0416 54.8182 41.6712 54.8182 39.9962C54.8182 38.3212 53.4477 36.9507 51.7727 36.9507C50.0977 36.9507 48.7273 38.3212 48.7273 39.9962Z" fill="#284458"/>
</svg>
