<svg width="131" height="137" viewBox="0 0 131 137" fill="none" xmlns="http://www.w3.org/2000/svg">
<path d="M21.2195 53.2816C4.63222 53.8577 9.64371 72.7146 14.2229 82.071C25.4922 105.193 113.21 91.5205 122.869 66.3875C132.528 41.2545 69.7503 24.5575 66.3504 32.6245C62.9505 40.6915 41.9536 52.5614 21.2195 53.2816Z" fill="#E5F7FF"/>
<g filter="url(#filter0_d)">
<rect x="66.66" y="12.8821" width="67.5201" height="67.5201" rx="20.8337" transform="rotate(45 66.66 12.8821)" fill="#776FC3"/>
</g>
<path fill-rule="evenodd" clip-rule="evenodd" d="M62.1853 43H72.3707V46.3951H62.1853V43ZM68.9756 65.0683H65.5805V54.8829H68.9756V65.0683ZM79.2119 53.8304L81.6224 51.4199C80.8925 50.5541 80.0946 49.7393 79.2289 49.0263L76.8183 51.4368C74.1871 49.3319 70.8769 48.0757 67.278 48.0757C58.8412 48.0757 52 54.9168 52 63.3537C52 71.7906 58.8242 78.6318 67.278 78.6318C75.7319 78.6318 82.5561 71.7906 82.5561 63.3537C82.5561 59.7719 81.2999 56.4616 79.2119 53.8304ZM55.3951 63.3708C55.3951 69.9403 60.7085 75.2537 67.2781 75.2537C73.8476 75.2537 79.161 69.9403 79.161 63.3708C79.161 56.8012 73.8476 51.4878 67.2781 51.4878C60.7085 51.4878 55.3951 56.8012 55.3951 63.3708Z" fill="white"/>
<defs>
<filter id="filter0_d" x="5.02701" y="12.8821" width="123.266" height="123.266" filterUnits="userSpaceOnUse" color-interpolation-filters="sRGB">
<feFlood flood-opacity="0" result="BackgroundImageFix"/>
<feColorMatrix in="SourceAlpha" type="matrix" values="0 0 0 0 0 0 0 0 0 0 0 0 0 0 0 0 0 0 127 0"/>
<feOffset dy="13.8891"/>
<feGaussianBlur stdDeviation="6.94457"/>
<feColorMatrix type="matrix" values="0 0 0 0 0.466667 0 0 0 0 0.435294 0 0 0 0 0.764706 0 0 0 0.22 0"/>
<feBlend mode="normal" in2="BackgroundImageFix" result="effect1_dropShadow"/>
<feBlend mode="normal" in="SourceGraphic" in2="effect1_dropShadow" result="shape"/>
</filter>
</defs>
</svg>
