<svg width="131" height="131" viewBox="0 0 131 131" fill="none" xmlns="http://www.w3.org/2000/svg">
<path d="M34.7799 103.187C28.2038 119.393 48.4835 121.533 59.4453 120.577C86.5148 118.261 111.077 28.6334 91.0706 10.0289C71.0639 -8.57559 28.0304 45.7769 34.3231 52.0374C40.6158 58.298 43 82.9305 34.7799 103.187Z" fill="#E5F7FF"/>
<g filter="url(#filter0_d)">
<rect width="67.52" height="67.52" rx="18.2212" transform="matrix(0.700832 0.713326 -0.700832 0.713326 65.3202 14)" fill="#776FC3"/>
</g>
<path fill-rule="evenodd" clip-rule="evenodd" d="M82.9725 54.2796H77.6084V47H52.5761C50.6092 47 49 48.6379 49 50.6398V70.6587H52.5761C52.5761 73.6798 54.972 76.1184 57.9401 76.1184C60.9082 76.1184 63.3042 73.6798 63.3042 70.6587H74.0324C74.0324 73.6798 76.4283 76.1184 79.3964 76.1184C82.3646 76.1184 84.7605 73.6798 84.7605 70.6587H88.3366V61.5592L82.9725 54.2796ZM82.0788 57.0097L85.5833 61.5594H77.6087V57.0097H82.0788ZM56.1522 70.6589C56.1522 71.6599 56.9568 72.4788 57.9402 72.4788C58.9236 72.4788 59.7282 71.6599 59.7282 70.6589C59.7282 69.658 58.9236 68.839 57.9402 68.839C56.9568 68.839 56.1522 69.658 56.1522 70.6589ZM61.9098 67.019C60.9264 65.9088 59.5317 65.1991 57.9404 65.1991C56.349 65.1991 54.9544 65.9088 53.971 67.019H52.5763V50.6398H74.0326V67.019H61.9098ZM77.6087 70.6589C77.6087 71.6599 78.4133 72.4788 79.3967 72.4788C80.3801 72.4788 81.1848 71.6599 81.1848 70.6589C81.1848 69.658 80.3801 68.839 79.3967 68.839C78.4133 68.839 77.6087 69.658 77.6087 70.6589Z" fill="white"/>
<defs>
<filter id="filter0_d" x="13.333" y="21.6139" width="103.974" height="105.395" filterUnits="userSpaceOnUse" color-interpolation-filters="sRGB">
<feFlood flood-opacity="0" result="BackgroundImageFix"/>
<feColorMatrix in="SourceAlpha" type="matrix" values="0 0 0 0 0 0 0 0 0 0 0 0 0 0 0 0 0 0 127 0"/>
<feOffset dy="12.1475"/>
<feGaussianBlur stdDeviation="6.07374"/>
<feColorMatrix type="matrix" values="0 0 0 0 0.466667 0 0 0 0 0.435294 0 0 0 0 0.764706 0 0 0 0.22 0"/>
<feBlend mode="normal" in2="BackgroundImageFix" result="effect1_dropShadow"/>
<feBlend mode="normal" in="SourceGraphic" in2="effect1_dropShadow" result="shape"/>
</filter>
</defs>
</svg>
