<svg width="50" height="59" viewBox="0 0 50 59" fill="none" xmlns="http://www.w3.org/2000/svg">
<path fill-rule="evenodd" clip-rule="evenodd" d="M16.6667 0H33.3333V5.55556H16.6667V0ZM22.2222 36.1111V19.4444H27.7778V36.1111H22.2222ZM44.5278 17.7222L48.4722 13.7778C47.2778 12.3611 45.9722 11.0278 44.5556 9.86108L40.6111 13.8055C36.3056 10.3611 30.8889 8.30553 25 8.30553C11.1944 8.30553 0 19.5 0 33.3055C0 47.1111 11.1667 58.3055 25 58.3055C38.8333 58.3055 50 47.1111 50 33.3055C50 27.4444 47.9444 22.0278 44.5278 17.7222ZM5.55556 33.3333C5.55556 44.0833 14.25 52.7778 25 52.7778C35.75 52.7778 44.4444 44.0833 44.4444 33.3333C44.4444 22.5833 35.75 13.8889 25 13.8889C14.25 13.8889 5.55556 22.5833 5.55556 33.3333Z" fill="#284458"/>
</svg>
